<?xml version="1.0" encoding="UTF-8" standalone="no"?>
<svg
   xmlns:dc="http://purl.org/dc/elements/1.1/"
   xmlns:cc="http://creativecommons.org/ns#"
   xmlns:rdf="http://www.w3.org/1999/02/22-rdf-syntax-ns#"
   xmlns:svg="http://www.w3.org/2000/svg"
   xmlns="http://www.w3.org/2000/svg"
   xmlns:sodipodi="http://sodipodi.sourceforge.net/DTD/sodipodi-0.dtd"
   xmlns:inkscape="http://www.inkscape.org/namespaces/inkscape"
   version="1.0"
   width="413.20038"
   height="476.46469"
   viewBox="0 0 309.90028 357.34852"
   preserveAspectRatio="xMidYMid meet"
   id="svg831"
   sodipodi:docname="ofss_logo.svg"
   inkscape:version="0.92.4 (5da689c313, 2019-01-14)">
  <metadata
     id="metadata837">
    <rdf:RDF>
      <cc:Work
         rdf:about="">
        <dc:format>image/svg+xml</dc:format>
        <dc:type
           rdf:resource="http://purl.org/dc/dcmitype/StillImage" />
        <dc:title></dc:title>
      </cc:Work>
    </rdf:RDF>
  </metadata>
  <defs
     id="defs835" />
  <sodipodi:namedview
     pagecolor="#ffffff"
     bordercolor="#666666"
     borderopacity="1"
     objecttolerance="10"
     gridtolerance="10"
     guidetolerance="10"
     inkscape:pageopacity="0"
     inkscape:pageshadow="2"
     inkscape:window-width="1920"
     inkscape:window-height="1027"
     id="namedview833"
     showgrid="false"
     inkscape:zoom="1.1904456"
     inkscape:cx="243.18299"
     inkscape:cy="195.31661"
     inkscape:window-x="1912"
     inkscape:window-y="-8"
     inkscape:window-maximized="1"
     inkscape:current-layer="svg831"
     fit-margin-top="0"
     fit-margin-left="0"
     fit-margin-right="0"
     fit-margin-bottom="0"
     units="px" />
  <path
     inkscape:connector-curvature="0"
     id="path827"
     d="m 78.125577,4.6159645 c -0.0358,0.07835 -2.58866,1.242274 -5.63342,2.596313 -3.0504,1.3405691 -8.2898,3.6768565 -11.62066,5.1665285 -3.33085,1.48967 -10.39595,4.542861 -15.67485,6.784814 -6.02361,2.537918 -11.799423,5.067131 -15.452143,6.770764 -6.433359,2.978768 -7.358159,3.445183 -7.620477,3.85598 -0.179482,0.281073 1.582249,5.198416 3.557313,9.915558 1.450261,3.463728 1.816065,3.136323 -9.776483,8.86133 -8.5985713,4.249666 -10.3522299,5.411609 -12.5222139,8.363576 -1.677998,2.270765 -2.001898,3.135034 -1.963428,5.083121 0.02849,1.651299 0.545517,4.032628 1.417552,6.66132 0.435757,1.259014 0.870735,2.898521 0.972198,3.632212 0.124639,0.898231 0.515215,2.04944 1.138473,3.483392 0.600696,1.380038 1.031358,2.736227 1.243167,3.788043 0.189236,0.997906 0.6594086,2.448434 1.1842106,3.701846 0.474015,1.132113 0.96056,2.512425 1.063907,3.086924 0.117195,0.552862 0.469467,1.830991 0.817423,2.825802 0.342268,0.981353 0.8670053,2.72584 1.1628463,3.869193 1.274296,4.899666 1.836576,6.897716 2.485413,8.938739 0.382409,1.18631 0.856916,2.92014 1.037391,3.84252 0.214927,1.11387 0.545954,2.06825 0.962332,2.84433 0.340448,0.64947 0.713557,1.64959 0.833852,2.26451 0.11467,0.60144 0.690149,2.46724 1.29516,4.1306 0.902171,2.53687 1.129702,3.40786 1.357623,5.37167 0.383176,3.37194 0.935165,6.54649 1.572603,9.05164 1.346336,5.34471 1.989208,8.84553 2.068272,11.60031 0.0973,2.52539 0.166227,2.90837 0.924807,5.15688 0.967969,2.85782 1.027524,3.05464 1.614567,6.53131 1.613907,9.47788 1.593859,9.37539 2.722357,12.562 0.621976,1.70377 1.200546,3.63164 1.273792,4.29794 1.185056,8.45359 1.480793,10.08802 2.44926,13.54756 1.101978,3.94219 1.361458,5.05326 1.826868,8.18485 0.589454,3.91919 0.794413,4.73627 2.729761,10.34125 1.117813,3.27028 1.82994,5.6808 2.184623,7.40144 0.726924,3.59236 1.133108,5.05383 2.159429,7.88721 1.277735,3.48844 2.760925,8.39569 3.062315,10.04362 0.13784,0.76597 0.38532,2.23054 0.56074,3.25007 0.18672,1.04649 0.59855,2.52143 0.96535,3.39747 1.60262,3.82763 3.91019,11.30432 4.59196,14.78885 0.22057,1.12735 0.90195,3.51906 1.53266,5.29838 2.05133,5.93659 3.37652,10.46646 3.88275,13.42256 0.13784,0.76598 0.88886,3.16021 1.67757,5.31691 1.59999,4.36729 2.78591,8.89212 3.39602,13.02442 0.28566,1.82875 0.69618,3.57354 1.48358,6.00006 0.60621,1.88462 1.26755,4.17385 1.44802,5.09623 0.19991,0.91422 0.62796,2.81008 0.95575,4.1935 0.32779,1.38342 0.76773,3.41685 0.97137,4.50377 0.20365,1.08692 0.83052,3.18465 1.35653,4.65932 0.90721,2.43972 2.37709,7.97031 3.23188,12.03185 0.51451,2.42991 1.31127,5.04259 2.16337,7.0777 0.81824,1.95425 2.52594,7.17933 3.58842,11.02719 0.94338,3.45419 1.59162,5.38457 1.97858,5.87201 0.29727,0.38242 0.57329,0.4411 2.6761,0.49523 1.29795,0.0426 2.86315,0.0684 3.51746,0.0479 1.87951,-0.0425 7.42725,-0.98719 14.231021,-2.42614 1.36577,-0.28673 3.564522,-0.003 4.536762,0.57154 0.73765,0.45148 2.34202,2.0449 3.39377,3.41032 0.74883,0.96953 0.91812,1.37385 1.71424,3.87593 0.49023,1.55301 1.03569,3.01953 1.23199,3.26999 0.68987,0.88334 2.26888,0.8875 4.36939,0.008 0.54458,-0.22802 2.98762,-1.10836 5.45575,-1.98336 2.47377,-0.86152 6.7262,-2.38856 9.43588,-3.39638 7.22875,-2.66235 6.93136,-2.55368 12.16874,-4.23968 6.22988,-1.99067 5.99085,-1.90643 13.12296,-4.41742 5.42562,-1.89154 6.8178,-2.44276 12.86902,-5.02392 11.46061,-4.89363 16.76775,-7.06813 20.1004,-8.22595 1.75103,-0.62227 4.93001,-1.8741 7.06379,-2.78336 2.13377,-0.90924 4.69289,-1.94908 5.70172,-2.324 l 1.8232,-0.66829 1.56377,0.78671 c 0.87126,0.44306 3.04158,1.6411 4.82675,2.6836 4.69625,2.75409 9.40774,4.72563 14.15137,5.95505 2.40946,0.6227 3.48087,0.99781 6.82175,2.37102 5.27228,2.16442 7.70431,2.84104 13.28679,3.67172 1.9064,0.29477 3.78832,0.69484 4.29642,0.92562 1.48788,0.66009 3.81955,1.31537 4.83896,1.34791 0.51253,0.023 1.61599,0.14709 2.47164,0.27986 0.8362,0.14094 1.76966,0.24115 2.06201,0.22963 0.29233,-0.0115 1.37574,0.0101 2.38951,0.0291 1.01942,0.0325 2.85438,-0.007 4.08209,-0.0776 1.22206,-0.084 2.82556,-0.18513 3.56331,-0.22474 1.89584,-0.11264 8.00004,-1.1478 10.34704,-1.76617 5.80068,-1.54168 14.31308,-4.74149 19.74829,-7.42906 1.98573,-0.98982 2.39981,-1.14735 4.83841,-1.81991 2.9863,-0.83851 5.71785,-1.41197 7.70216,-1.64086 2.09285,-0.24266 1.62175,-0.33053 -0.74712,-0.14655 -2.26032,0.17022 -3.72082,0.44909 -7.77552,1.46565 -2.33884,0.58326 -2.69457,0.71637 -6.14776,2.24142 -7.38697,3.26716 -13.74111,5.45242 -18.71485,6.45779 -3.01825,0.59845 -8.10796,1.2722 -9.91784,1.31718 -0.93285,0.0104 -2.35817,0.10031 -3.16245,0.19945 -0.8099,0.0857 -2.38578,0.14356 -3.49992,0.10316 -4.17238,-0.13803 -6.24315,-0.44317 -9.79616,-1.39494 -2.97026,-0.81559 -6.36023,-1.48712 -9.62918,-1.92421 -1.06455,-0.14036 -5.51142,-1.58908 -7.89508,-2.58692 -4.25357,-1.75141 -5.71577,-2.29553 -8.39056,-3.06059 -4.83645,-1.39649 -8.39812,-2.91487 -13.98701,-5.94466 -2.25688,-1.24101 -4.39898,-2.37166 -4.74524,-2.5435 l -0.61158,-0.31417 11.27995,-4.83379 c 20.17326,-8.65246 28.94112,-12.49779 31.14584,-13.67435 1.14126,-0.60457 3.64083,-1.84122 5.57699,-2.73109 3.45823,-1.6222 9.15323,-4.67199 9.74619,-5.22122 0.45993,-0.43018 0.19723,-1.1122 -0.47148,-1.1807 -0.45418,-0.0474 -3.00768,1.00586 -4.71236,1.95723 -1.20776,0.66409 -6.48294,3.07873 -14.85869,6.82326 -4.89496,2.17623 -22.44185,9.3489 -30.45363,12.4341 -2.80943,1.09716 -6.54995,2.53654 -8.3173,3.229 l -3.20409,1.24647 -1.70869,-0.80524 c -2.05493,-0.97707 -6.14836,-3.49251 -7.95791,-4.92081 l -1.32282,-1.03016 1.96436,-0.82248 c 1.08915,-0.45603 4.745,-2.09761 8.12292,-3.63867 3.37228,-1.55453 11.53721,-5.14743 18.14118,-7.9917 6.59831,-2.85779 13.02412,-5.6908 14.27955,-6.29565 1.25546,-0.6048 4.9,-2.27339 8.10035,-3.69257 4.42817,-1.9808 6.19745,-2.83248 7.41589,-3.58024 0.87149,-0.53913 2.66526,-1.49611 3.96775,-2.15235 1.30812,-0.64278 2.71604,-1.3748 3.11571,-1.62134 0.4191,-0.25473 2.22357,-1.29534 4.0004,-2.29274 3.52858,-2.00014 5.56017,-3.26261 7.47699,-4.63544 0.68516,-0.49279 2.16965,-1.47867 3.3103,-2.19387 2.58937,-1.62274 3.36494,-2.391 4.20409,-4.26301 1.544,-3.35516 2.10089,-5.40997 2.07252,-7.55236 -0.0117,-1.11977 -0.12826,-1.56201 -1.07882,-3.77766 -0.90289,-2.15641 -1.21201,-2.67643 -2.02738,-3.58642 -1.45129,-1.60998 -2.39713,-2.44949 -3.31042,-2.93832 -0.46919,-0.24708 -1.14345,-0.82014 -1.53293,-1.25899 -0.38949,-0.43886 -0.77584,-0.81566 -0.85112,-0.83166 -0.0753,-0.016 0.39306,1.10265 1.06343,2.4852 2.15766,4.49812 4.06561,9.16416 4.09809,10.00594 0.0874,1.73749 -0.80032,4.91292 -1.86279,6.68837 -0.80581,1.35116 -2.16806,2.79275 -3.35578,3.55933 -3.18293,2.06135 -6.51077,4.10416 -8.0655,4.97689 -4.60897,2.5317 -6.96928,3.77341 -8.8998,4.67676 -1.15003,0.529 -3.08305,1.48095 -4.2632,2.10181 -1.18016,0.62085 -3.91877,1.94175 -6.08268,2.94281 -4.41123,2.02123 -10.34396,4.88542 -12.74881,6.12994 -0.88592,0.45007 -4.12515,1.88559 -7.23702,3.18853 -7.38506,3.10795 -17.14736,7.41719 -23.34168,10.31171 -2.73609,1.27233 -5.89442,2.73728 -7.03629,3.23121 l -2.06414,0.91174 -2.69523,-1.96036 c -1.47902,-1.07564 -3.96101,-2.74512 -5.52852,-3.70452 -2.95623,-1.81941 -5.29331,-3.47035 -9.08554,-6.41287 -2.2737,-1.77253 -4.09705,-3.17921 -4.44642,-3.4131 -0.0923,-0.0564 -0.0288,-0.17803 0.12678,-0.24317 0.17504,-0.0733 1.52903,-0.98868 3.0104,-2.03663 1.47573,-1.06141 3.80097,-2.60524 5.16373,-3.44511 1.34896,-0.81825 3.48284,-2.2186 4.75903,-3.10142 1.25675,-0.87468 4.36693,-3.0006 6.9168,-4.71768 2.54423,-1.73057 5.64563,-3.93202 6.86852,-4.88757 2.06868,-1.61065 4.17686,-3.12695 8.77657,-6.33591 0.97378,-0.67701 2.71495,-2.08716 3.85944,-3.12077 1.24425,-1.1229 3.06322,-2.56563 4.46427,-3.53241 3.77024,-2.62406 4.35816,-3.07614 6.03412,-4.69661 1.0278,-0.98474 2.92144,-2.5221 5.40108,-4.35233 3.87192,-2.87256 7.12087,-5.59516 10.1848,-8.54126 0.94183,-0.91707 2.87377,-2.58134 4.28239,-3.69386 3.55448,-2.86636 4.03386,-3.30469 5.89255,-5.63526 0.91553,-1.14367 2.05509,-2.57122 2.55584,-3.17688 1.38867,-1.7061 2.90926,-4.24361 4.08986,-6.82884 0.58057,-1.28854 1.02871,-2.3474 0.97289,-2.37154 -0.22018,-0.0345 -2.49054,2.89609 -4.23384,5.44764 -1.71822,2.55689 -4.9568,6.6691 -6.57946,8.36229 -0.4292,0.44898 -2.00913,1.80747 -3.47297,3.00647 -1.46385,1.199 -3.76974,3.22578 -5.12446,4.52164 -4.00324,3.8146 -5.60262,5.18123 -9.09745,7.75333 -1.93878,1.42954 -4.28167,3.3134 -5.6395,4.54722 -1.70983,1.53959 -2.96597,2.52491 -4.75289,3.71661 -2.85793,1.90944 -3.79533,2.61872 -5.78501,4.41806 -1.88991,1.71004 -2.97978,2.54654 -6.17339,4.69155 -1.4067,0.95331 -4.00303,2.83241 -5.76677,4.18866 -1.74993,1.33463 -4.97056,3.63351 -7.12641,5.09057 -2.15585,1.45707 -5.23276,3.55323 -6.84463,4.67164 -1.61188,1.11842 -4.10088,2.76249 -5.5496,3.67004 -1.44872,0.90754 -3.84047,2.5109 -5.31621,3.57231 -1.47572,1.06142 -2.80463,1.98215 -2.94077,2.03915 -0.31119,0.1303 -3.40597,-2.07462 -6.33196,-4.47693 -5.48568,-4.53031 -10.1021,-7.96728 -12.01777,-8.93929 -1.35991,-0.68199 -5.15679,-2.43454 -5.91581,-2.71868 -1.82789,-0.7078 -3.48771,-1.23255 -4.83453,-1.55569 l -1.47791,-0.36329 1.42111,-0.8643 c 0.77988,-0.48493 2.27253,-1.50593 3.32098,-2.27755 1.09551,-0.82302 3.29902,-2.22084 5.31429,-3.41311 2.58997,-1.51211 4.04121,-2.46822 6.02142,-3.96263 1.41989,-1.08555 3.4145,-2.49095 4.41086,-3.11404 3.23311,-2.05068 4.74209,-3.14185 9.99694,-7.24289 2.84232,-2.21969 6.43944,-4.92966 7.98732,-6.03713 1.54787,-1.10747 3.99365,-3.01856 5.42112,-4.24985 1.66024,-1.43964 3.59591,-2.93123 5.35773,-4.12828 3.22939,-2.22336 7.41201,-5.82793 10.15286,-8.78131 2.12906,-2.28538 3.20704,-3.25946 6.29595,-5.70912 2.62586,-2.08155 2.78649,-2.24384 6.70881,-6.08792 2.54001,-2.50497 3.48498,-3.35998 9.10574,-8.27952 2.51672,-2.17841 5.01663,-4.88835 7.71869,-8.31654 0.77435,-0.98951 1.92771,-2.43868 2.54456,-3.20384 1.97225,-2.4415 3.73884,-5.3196 4.50716,-7.4154 0.72751,-1.92032 1.10986,-3.30011 1.1916,-4.1422 0.0227,-0.43718 0.0227,-0.43718 -0.32753,0.20045 -0.20962,0.37289 -0.94013,1.74005 -1.62924,3.04236 -1.26523,2.38307 -1.88148,3.25885 -4.26096,6.09262 -0.7028,0.83283 -1.96157,2.35782 -2.82752,3.40152 -5.28421,6.37848 -6.26998,7.409 -10.76822,11.35164 -2.37806,2.07283 -5.68354,5.15175 -7.38149,6.82893 -3.54523,3.54363 -5.13021,4.99927 -7.29049,6.66411 -2.02162,1.55927 -2.88062,2.34661 -4.61373,4.21277 -3.07029,3.31308 -6.67315,6.50067 -10.68122,9.43022 -1.72796,1.27791 -4.09594,3.15644 -5.25988,4.19819 -1.17774,1.06336 -3.59843,2.9798 -5.42364,4.29843 -1.81957,1.3321 -5.58296,4.19089 -8.36694,6.38616 -3.83494,3.01547 -5.74612,4.40176 -7.85802,5.74539 -1.55412,0.98336 -3.8568,2.5811 -5.1324,3.57456 -2.64843,2.02762 -4.00806,2.92955 -7.10624,4.70197 -1.19648,0.69104 -3.31655,2.06977 -4.72013,3.08513 -2.56308,1.84933 -3.89509,2.70802 -3.96281,2.54628 -0.0226,-0.0539 0.13,-0.6722 0.35161,-1.3986 1.37552,-4.63104 0.60527,-7.99932 -3.70272,-16.1591 -0.91176,-1.74085 -2.69134,-5.33598 -3.92284,-8.00425 -1.25094,-2.66012 -2.40284,-5.02908 -2.57404,-5.27419 l -0.31984,-0.43634 1.0572,-0.6961 c 0.57159,-0.38188 2.21481,-1.37086 3.65848,-2.18125 3.08437,-1.75079 3.4784,-2.01081 6.28303,-3.99296 1.16514,-0.82049 3.1409,-2.10711 4.39825,-2.87116 3.12267,-1.87772 3.83292,-2.36518 7.01909,-4.85556 1.80515,-1.42111 3.6473,-2.6993 5.29866,-3.72338 3.03923,-1.85862 4.98113,-3.2261 7.2431,-5.13943 0.92864,-0.78483 3.10332,-2.36067 4.79864,-3.49818 3.83171,-2.58644 7.11824,-5.05548 10.733,-8.10548 1.53851,-1.29363 3.84251,-3.1612 5.12938,-4.1277 3.49987,-2.66926 4.7805,-3.75987 6.69683,-5.73441 0.9387,-0.97913 2.66486,-2.58893 3.83192,-3.56862 7.96929,-6.78992 9.1163,-7.8721 12.32909,-11.60917 0.39846,-0.46781 1.59505,-1.64995 2.66175,-2.65098 5.03164,-4.68871 6.54325,-6.31956 7.9929,-8.58976 1.12394,-1.73781 1.45156,-2.4294 1.70461,-3.51745 0.15199,-0.72893 0.2569,-1.40647 0.22304,-1.48733 -0.0395,-0.0944 -0.82141,1.0409 -1.74078,2.50298 -1.27268,2.0377 -1.96672,2.94606 -2.83389,3.76851 -0.62056,0.59247 -2.12461,2.07759 -3.30991,3.28669 -1.18531,1.2091 -2.72826,2.71051 -3.40718,3.32742 -0.67891,0.6169 -2.43459,2.42915 -3.90166,4.05719 -2.21442,2.46367 -3.52206,3.70816 -8.07553,7.73728 -2.98482,2.64369 -5.95523,5.37639 -6.62538,6.06883 -1.76949,1.83386 -2.85876,2.78098 -6.02859,5.20117 -1.57802,1.19928 -4.00687,3.15082 -5.42616,4.34701 -4.68205,3.9404 -7.24452,5.90036 -11.22618,8.56542 -1.18207,0.78005 -2.81028,1.96867 -3.59208,2.61281 -3.41835,2.80937 -4.38083,3.51332 -7.54179,5.51795 -2.05921,1.30572 -4.13162,2.74369 -5.41538,3.77224 -2.82539,2.26013 -4.39836,3.36226 -7.127,4.97995 -1.24354,0.74243 -3.43577,2.16721 -4.85063,3.15561 -1.40106,0.9668 -3.95153,2.57324 -5.66438,3.5597 -1.71284,0.98644 -3.48656,2.0459 -3.93329,2.34383 -0.44108,0.3114 -0.84074,0.55795 -0.88528,0.56076 -0.0307,-0.0188 -0.56321,-0.63541 -1.19665,-1.38396 -1.4381,-1.74223 -4.97556,-4.94982 -6.29154,-5.74525 -5.9564,-3.52537 -8.10666,-4.62093 -11.60254,-5.81837 -2.056252,-0.70724 -4.261242,-1.11459 -7.947393,-1.4562 -1.55199,-0.15803 -3.33546,-0.37756 -3.94332,-0.51906 l -1.1097,-0.24817 0.46305,-0.36813 c 0.4549,-0.33303 1.20153,-0.7882 6.32878,-3.77451 1.06598,-0.62057 3.194211,-2.03439 4.736451,-3.15534 1.547892,-1.10746 3.440212,-2.37498 4.203772,-2.78973 2.7625,-1.53681 5.88143,-3.5872 7.48646,-4.94037 1.88235,-1.56431 3.03621,-2.41175 6.08864,-4.40261 2.80271,-1.82295 4.10904,-2.79759 6.88929,-5.16555 2.27013,-1.94843 4.85205,-3.91653 10.05288,-7.70983 1.50898,-1.09117 3.72449,-2.8425 4.93861,-3.87358 1.627,-1.40988 2.88626,-2.33314 4.93983,-3.65233 2.9972,-1.90438 4.11779,-2.72206 6.73741,-4.92771 1.7575,-1.48035 3.59087,-2.83408 5.65008,-4.13979 1.76495,-1.13499 7.55691,-5.80941 10.16152,-8.2147 1.27187,-1.16614 3.40081,-2.96042 4.74039,-3.96482 3.29469,-2.50415 4.08466,-3.1834 7.33684,-6.33504 7.5516,-7.29616 11.5474,-11.45612 13.33585,-13.89985 0.69655,-0.95693 1.58699,-2.10594 1.97164,-2.55212 1.12636,-1.2953 1.75279,-2.85648 2.02491,-5.04549 l 0.066,-0.66126 -0.26423,0.57 c -0.86426,1.86669 -2.09553,3.83953 -3.67184,5.8618 -1.94404,2.50887 -4.51238,5.43754 -6.18018,7.02291 -0.58732,0.56272 -1.81716,1.77462 -2.75335,2.70517 -3.09658,3.08649 -8.85985,8.43002 -10.44038,9.67788 -0.8596,0.67672 -2.34037,1.83528 -3.29157,2.5662 -0.9512,0.73091 -2.83607,2.3438 -4.20771,3.59923 -2.77652,2.54064 -8.11924,6.86854 -9.64012,7.82213 -1.92618,1.18666 -4.37256,2.98713 -6.21602,4.53516 -2.34228,1.99449 -3.19936,2.62263 -6.26871,4.57307 -1.9149,1.21361 -3.07693,2.09616 -5.04211,3.7902 -1.40801,1.22314 -3.3073,2.74702 -4.21708,3.41307 -4.42971,3.23282 -8.18745,6.10509 -10.81836,8.28379 -3.22133,2.67935 -4.00625,3.26144 -7.93833,5.82653 -1.5234,1.00218 -3.54562,2.45081 -4.47425,3.23564 -1.71044,1.42896 -5.37587,3.86657 -7.97461,5.30315 -0.75792,0.42822 -2.65588,1.68226 -4.198122,2.80321 -2.055481,1.4784 -3.609611,2.46175 -5.777951,3.67061 -1.62689,0.91878 -3.7532,2.17338 -4.70501,2.79367 l -1.76495,1.13499 -2.26334,-0.38292 c -9.1368,-1.51261 -11.91389,-2.1398 -18.28276,-4.19355 -1.58454,-0.50873 -3.57055,-1.10282 -4.39608,-1.32742 -1.56449,-0.40625 -4.4387,-1.48382 -4.52899,-1.69947 -0.0282,-0.0673 -0.78218,-0.44867 -1.68107,-0.84848 -0.90453,-0.41329 -1.97149,-0.99617 -2.39362,-1.29463 -0.42213,-0.29846 -1.07886,-0.72046 -1.4615,-0.92458 -0.38261,-0.20412 -0.72071,-0.41105 -0.74892,-0.47844 -0.0226,-0.0539 0.66883,-0.4226 1.55785,-0.81067 0.86957,-0.37992 2.12499,-0.98481 2.79132,-1.35881 0.6663,-0.37405 1.99954,-1.01145 2.99144,-1.42676 2.04217,-0.85506 5.45779,-2.63365 7.73093,-4.02895 0.85769,-0.51751 2.7236,-1.52053 4.12898,-2.20401 3.16902,-1.54862 5.63726,-2.91472 7.39344,-4.12524 1.63696,-1.11308 2.21168,-1.43291 4.939,-2.78077 2.18587,-1.05778 4.71438,-2.60752 6.98883,-4.27265 0.71843,-0.52256 2.77451,-1.89033 4.56454,-3.01998 3.974111,-2.51933 6.520253,-4.40909 9.419113,-6.98511 1.96207,-1.75609 4.20268,-3.50208 6.92698,-5.40308 3.39002,-2.38566 4.31049,-3.13539 6.35167,-5.19389 2.40135,-2.39939 2.77279,-2.71331 5.14198,-4.37058 3.87001,-2.71335 7.21932,-5.41461 8.98317,-7.26195 2.17361,-2.28819 3.33694,-3.44056 5.73385,-5.63217 5.61955,-5.14079 7.89664,-7.34559 10.58791,-10.19901 1.041,-1.117 3.30992,-3.2867 5.05302,-4.85606 5.24869,-4.71624 6.9291,-6.54449 9.88856,-10.77742 1.74078,-2.50298 2.86341,-3.97095 7.0125,-9.12967 1.29455,-1.60333 2.87398,-3.56354 3.49898,-4.3638 0.63065,-0.78678 1.95473,-2.59255 2.92176,-3.99538 1.74079,-2.50298 1.79037,-2.60294 2.21989,-4.52522 0.4785,-2.13286 0.64631,-3.5337 0.45122,-3.5629 -0.0753,-0.016 -0.25728,0.31365 -0.42488,0.73231 -1.12859,2.92778 -3.96521,7.72705 -6.21671,10.53891 -0.63629,0.77331 -1.78401,2.23595 -2.57781,3.2336 -0.78816,1.01114 -2.53075,3.18222 -3.89181,4.84507 -1.36106,1.66286 -3.28565,4.1636 -4.27213,5.57458 -3.06738,4.35732 -4.61477,6.06651 -9.82459,10.76645 -1.64895,1.4666 -3.96182,3.74974 -5.17726,5.05065 -2.25078,2.43139 -5.31724,5.42607 -10.46245,10.22569 -1.57933,1.46912 -3.65125,3.50881 -4.62321,4.51769 -2.7854,2.9562 -4.65394,4.49889 -10.03042,8.25485 -1.67838,1.17794 -2.76513,2.07649 -3.99497,3.28839 -2.80857,2.79166 -3.80936,3.62254 -7.60973,6.33841 -2.21924,1.57865 -4.67066,3.47627 -6.3171,4.89428 -4.301832,3.70201 -6.057413,5.02317 -9.540843,7.13113 -0.98254,0.60146 -3.06372,1.9639 -4.60343,3.03627 -3.07944,2.14473 -5.00311,3.28281 -7.61122,4.53323 -0.95554,0.44757 -2.26054,1.15241 -2.89612,1.54525 -3.99667,2.46541 -5.66245,3.40048 -8.21786,4.61299 -1.56097,0.74865 -3.68538,1.84404 -4.69301,2.44017 -2.81208,1.63679 -4.52553,2.51261 -8.26985,4.27043 -1.89161,0.8871 -4.14713,1.94233 -5.02486,2.35735 -2.44435,1.15017 -2.33018,1.1499 -4.04501,-0.27055 -1.99204,-1.70038 -5.61705,-6.15437 -6.27164,-7.71776 -0.26523,-0.63345 -1.176168,-3.24585 -2.050737,-5.82596 -1.508388,-4.42149 -2.150869,-6.82949 -2.368108,-8.87697 -0.09391,-0.87942 -0.07193,-0.93614 0.714916,-1.67743 1.147013,-1.08219 2.693576,-1.91983 4.667319,-2.55614 3.09423,-0.96291 4.82834,-1.62562 9.65174,-3.64517 l 4.85666,-2.04931 1.87227,-1.37001 c 1.45628,-1.05327 2.29451,-1.56264 3.74444,-2.24893 2.63885,-1.2316 4.55686,-2.38316 6.48124,-3.90171 0.9123,-0.71462 2.94581,-2.1363 4.50811,-3.15476 1.56228,-1.01846 4.20316,-2.90036 5.86149,-4.1808 1.65833,-1.28043 5.18077,-3.89577 7.83545,-5.79929 2.64904,-1.91701 5.54154,-4.12604 6.40054,-4.91338 0.88408,-0.78202 3.03057,-2.42524 4.775461,-3.66272 1.803242,-1.2619 4.235212,-3.15138 5.615612,-4.33129 2.16472,-1.87262 6.14085,-5.04225 9.72104,-7.79266 0.69332,-0.52789 2.03734,-1.74009 2.9817,-2.70573 0.94435,-0.96565 2.59271,-2.54287 3.65688,-3.49533 4.11803,-3.70426 7.09923,-7.01172 11.57845,-12.91059 1.78342,-2.34658 3.87428,-4.99614 4.6185,-5.89384 0.76367,-0.90583 2.07202,-2.53077 2.9405,-3.62306 0.86283,-1.10576 2.29604,-2.81467 3.20402,-3.8126 1.60825,-1.7822 4.78729,-6.09123 5.97654,-8.109843 0.73676,-1.243047 4.74981,-6.835857 6.56396,-9.163634 3.21913,-4.104054 5.12701,-7.627408 5.93073,-10.894378 0.17707,-0.72359 -0.23208,-0.172112 -2.85525,3.935857 -1.68999,2.624273 -3.74268,5.638012 -4.58354,6.687048 -1.87501,2.400779 -4.17177,5.59591 -6.32049,8.871617 -2.51897,3.810903 -4.51763,6.516893 -6.25578,8.480193 -0.87473,0.96818 -2.10589,2.44992 -2.7585,3.29342 -0.65262,0.8435 -1.84488,2.30896 -2.63052,3.27152 -0.79128,0.94907 -2.99259,3.77159 -4.86448,6.23442 -2.72908,3.58207 -4.10706,5.20448 -6.72366,7.96328 -1.83036,1.90688 -4.19845,4.2765 -5.28459,5.28567 -1.09179,0.9957 -2.68745,2.53502 -3.55148,3.41952 -0.86404,0.8845 -2.28585,2.12926 -3.17619,2.78717 -2.84293,2.10908 -7.03239,5.4789 -9.49077,7.63289 -1.34151,1.16361 -3.720772,3.01518 -5.354612,4.19032 -1.639491,1.16167 -3.708171,2.77231 -4.606061,3.57595 -0.93115,0.83339 -3.7515,2.99637 -6.47269,4.95942 -2.64904,1.91701 -6.13823,4.50259 -7.76895,5.73978 -1.67213,1.30205 -4.29104,3.12724 -6.09488,4.27852 -1.73169,1.10522 -3.65727,2.40251 -4.27844,2.88435 -1.51402,1.18833 -3.37117,2.26689 -6.34317,3.6855 -2.06102,0.97383 -2.74114,1.36948 -4.04747,2.34412 l -1.56421,1.17766 -5.33161,2.27983 c -5.16222,2.19307 -7.52182,3.0543 -10.16115,3.68421 -1.181965,0.28897 -2.313032,0.20814 -3.501739,-0.22873 -1.250182,-0.47448 -1.272756,-0.5284 -2.238697,-4.0365 -0.750301,-2.77471 -1.065486,-4.40101 -1.621684,-8.34996 -0.234273,-1.59683 -0.540589,-3.63869 -0.659588,-4.52345 -0.150337,-1.01419 -0.695084,-2.86118 -1.43049,-4.94515 -1.216261,-3.45082 -1.619827,-5.45196 -1.250181,-6.09778 0.292455,-0.50262 2.565099,-2.49963 4.598003,-4.03195 1.630721,-1.23718 1.800124,-1.32395 5.575191,-3.06297 2.689015,-1.22097 4.669115,-2.22424 6.304175,-3.17812 1.32133,-0.77501 3.88431,-2.13325 5.70628,-3.02283 1.81634,-0.90306 3.96271,-2.05519 4.75639,-2.56175 0.7937,-0.50656 2.80393,-1.60169 4.45086,-2.41798 3.11883,-1.5593 3.43254,-1.73816 5.64673,-3.21966 0.73535,-0.48213 2.47581,-1.51182 3.85297,-2.26269 1.69088,-0.92972 3.1534,-1.85889 4.51808,-2.85797 1.09551,-0.82301 3.17356,-2.2475 4.61099,-3.182 1.43743,-0.9345 3.47094,-2.35618 4.5081,-3.15476 1.05097,-0.82021 2.72059,-2.07368 3.74143,-2.80207 4.82121,-3.44426 7.09255,-5.17144 9.048971,-6.94102 1.18339,-1.04989 3.373812,-2.80656 4.882792,-3.89773 1.60875,-1.18047 4.3896,-3.43779 6.68735,-5.42948 2.15908,-1.88609 4.66199,-4.04288 5.56301,-4.78447 2.19546,-1.853813 2.84616,-2.538103 6.30745,-6.664352 1.63527,-1.93607 3.66395,-4.242781 4.48909,-5.110994 4.02089,-4.154624 5.84692,-6.344804 8.62689,-10.296668 1.74643,-2.489503 4.27154,-5.685195 6.43577,-8.159542 3.70849,-4.245594 6.99737,-8.838225 7.81023,-10.93684 0.49149,-1.282926 0.86217,-3.78249 0.60188,-4.021991 -0.0728,-0.06457 -0.39221,0.591906 -0.72175,1.442697 -0.69738,1.828497 -2.9886,5.528199 -4.70671,7.593992 -0.66954,0.803067 -1.72626,2.100888 -2.33745,2.879524 -0.60556,0.792117 -1.56564,1.938594 -2.13037,2.555214 -2.11778,2.312336 -5.61616,6.786755 -7.37579,9.408507 -1.85627,2.7731 -4.8131,6.466364 -7.31048,9.127719 -0.75863,0.808688 -2.36629,2.701506 -3.57235,4.188584 -4.6197,5.672567 -5.47557,6.521967 -11.50658,11.28063 -1.13693,0.88788 -2.82791,2.30871 -3.76471,3.12863 -0.93114,0.8334 -2.8279,2.3087 -4.19823,3.2943 -1.370322,0.9856 -3.383172,2.6204 -4.494403,3.62424 -2.07,1.88048 -5.53661,4.51997 -7.90953,6.00456 -0.74098,0.46865 -2.50785,1.76284 -3.93591,2.8835 -1.40862,1.11252 -3.43083,2.56115 -4.48553,3.20868 -1.0547,0.64752 -3.22434,2.1262 -4.84438,3.27971 -2.16653,1.54074 -3.64851,2.47805 -5.50878,3.49455 -1.42171,0.75367 -3.25378,1.83756 -4.08888,2.40898 -1.71476,1.14566 -3.12519,1.92629 -6.30237,3.51002 -1.19142,0.59392 -2.82396,1.49919 -3.6233,1.99227 -0.86584,0.55262 -2.78195,1.54497 -4.78462,2.49437 -1.83889,0.84919 -4.52169,2.1942 -5.96284,2.95601 -1.44116,0.76181 -4.432618,2.18857 -6.6718,3.17364 -3.972662,1.75843 -4.069903,1.79915 -5.15272,1.88816 -1.28606,0.0949 -3.025591,-0.23802 -3.930715,-0.76194 -0.726367,-0.42453 -0.96277,-0.87995 -2.509452,-5.17452 -0.879602,-2.48297 -1.027524,-3.05464 -1.186412,-5.12655 -0.104478,-1.28684 -0.203317,-2.5602 -0.246549,-2.82723 -0.01817,-0.26167 0.03337,-0.52086 0.130607,-0.56157 0.09725,-0.0407 0.101689,-0.2485 0.01704,-0.45066 -0.08465,-0.20216 -0.291416,-1.35114 -0.445473,-2.53801 -0.255525,-1.92057 -0.411619,-2.45714 -1.342114,-4.5703 -1.203833,-2.71154 -1.267726,-3.19167 -0.567865,-5.06873 1.106017,-2.9817 5.191992,-6.43492 10.811006,-9.12024 1.958127,-0.94659 2.990851,-1.53739 4.339204,-2.46628 0.973769,-0.677 3.177281,-2.07482 4.903931,-3.08289 1.97637,-1.17599 3.84672,-2.38679 5.0031,-3.28281 1.10367,-0.85812 2.66597,-1.87658 3.94025,-2.6002 1.16887,-0.64781 3.58068,-2.14868 5.39268,-3.33505 1.80637,-1.199853 3.76833,-2.464853 4.37629,-2.81445 1.64886,-0.9755 2.85854,-1.7988 5.06337,-3.46645 1.08986,-0.836491 3.62532,-2.64258 5.63122,-4.021018 2.0059,-1.378438 4.72961,-3.390067 6.06607,-4.456533 1.33082,-1.079942 3.78849,-2.853459 5.43674,-3.939588 1.87851,-1.245899 3.75079,-2.61591 4.98436,-3.655134 1.07546,-0.925501 3.0086,-2.368518 4.27663,-3.216247 1.28749,-0.855876 3.376223,-2.364038 4.646173,-3.370972 1.2505,-0.998792 3.017362,-2.292987 3.891372,-2.880696 3.60709,-2.413183 6.81018,-4.863133 8.77477,-6.667801 1.15265,-1.068707 3.14606,-2.695358 4.64939,-3.800011 1.45629,-1.053274 3.32231,-2.547388 4.13676,-3.331928 0.83955,-0.779206 2.96286,-2.586969 4.72347,-4.005268 5.92499,-4.793472 8.75433,-7.863106 11.18745,-12.097428 0.99848,-1.764484 1.65394,-4.129845 1.4503,-5.216761 l -0.11155,-0.539383 -0.43939,1.134388 c -0.63458,1.596282 -2.86685,5.382182 -4.1087,6.947603 -2.6801,3.371473 -4.86558,5.522075 -9.3098,9.156979 -1.63576,1.334342 -3.65366,3.066291 -4.4932,3.845494 -0.8201,0.771062 -2.77774,2.319375 -4.33378,3.461937 -1.7198,1.242809 -3.61344,2.780169 -4.83261,3.908404 -1.87862,1.736995 -5.75559,4.706701 -8.25587,6.323819 -0.59668,0.376551 -2.299552,1.659792 -3.774682,2.831838 -1.494573,1.180186 -3.191813,2.476908 -3.782853,2.866936 -2.29198,1.514063 -3.4402,2.374989 -5.30563,3.979736 -1.11435,0.941787 -3.10583,2.409231 -4.62359,3.42488 -1.48449,0.985883 -4.04192,2.848691 -5.70026,4.129124 -1.65268,1.29391 -4.64556,3.481601 -6.632,4.851893 -1.98646,1.370297 -4.45541,3.116858 -5.45931,3.885678 -1.00391,0.768819 -2.72684,1.949579 -3.83988,2.621529 -1.08795,0.67729 -3.36361,2.121157 -5.05076,3.223567 -1.66771,1.094283 -3.92704,2.467943 -5.00996,3.048083 -1.15506,0.62619 -2.99216,1.80723 -4.50114,2.89841 -1.44248,1.03165 -3.69305,2.48085 -5.16433,3.33448 -1.43804,0.82387 -3.436377,2.05658 -4.449053,2.74987 -1.362154,0.9505 -2.472674,1.57387 -4.397546,2.4907 -1.411029,0.67 -3.015938,1.53206 -3.548631,1.89765 -2.477723,1.67104 -3.840371,2.01981 -6.054132,1.53693 -1.987928,-0.43488 -2.424466,-0.82235 -3.450292,-3.05401 -0.61705,-1.30983 -0.990641,-2.42062 -1.1943,-3.50753 -0.16918,-0.89542 -0.659419,-2.44843 -1.127791,-3.56707 -0.462729,-1.10516 -0.930386,-2.60426 -1.073875,-3.38372 -0.118393,-0.77412 -0.615471,-2.56187 -1.093821,-3.97729 -0.517841,-1.509773 -0.893298,-2.95244 -0.896314,-3.50558 -0.05852,-2.05058 0.950762,-4.389838 2.494311,-5.780614 0.493191,-0.459944 1.273073,-0.944882 2.353465,-1.476443 0.897181,-0.423165 2.71604,-1.374808 4.034861,-2.10124 3.034788,-1.650831 4.645348,-2.499414 7.444827,-3.893318 1.210887,-0.602042 2.862871,-1.515487 3.676007,-2.03019 0.81878,-0.501225 2.525987,-1.501156 3.825353,-2.219444 1.299377,-0.71829 3.605781,-2.143346 5.123521,-3.158992 1.51212,-1.029128 3.66292,-2.389038 4.7816,-3.047511 2.17086,-1.257425 3.91324,-2.446323 10.05771,-6.8248 2.18597,-1.548877 4.44411,-3.143808 5.03514,-3.533837 0.59104,-0.390028 1.81393,-1.345579 2.72311,-2.122259 0.89538,-0.755061 2.73691,-2.143881 4.09091,-3.059284 1.33454,-0.907259 3.46721,-2.52886 4.70895,-3.603185 1.24737,-1.060844 3.10524,-2.51986 4.13172,-3.234775 3.77024,-2.624055 6.89745,-5.200639 9.54226,-7.892045 0.81698,-0.833117 2.10266,-2.020881 2.83175,-2.627117 2.33724,-1.897338 6.135923,-5.436197 7.503233,-6.974944 0.72789,-0.827495 2.344912,-2.534158 3.585442,-3.829742 1.24618,-1.282107 2.87075,-3.134496 3.60056,-4.121198 1.45146,-1.938309 1.34605,-1.862493 4.40089,-3.410836 3.20479,-1.62697 9.48649,-5.350093 11.45038,-6.7743 1.01519,-0.741866 2.62333,-2.032966 3.57958,-2.861033 l 1.72675,-1.499164 3.06231,7.47749 c 1.67091,4.099994 3.17138,7.574379 3.31686,7.703552 0.13983,0.115696 0.40772,0.209456 0.5746,0.171264 0.33124,-0.02781 0.28127,-1.020664 -0.23746,-4.224976 -0.28817,-1.780174 -0.46935,-2.322085 -1.65318,-4.93111 -1.45158,-3.193893 -2.04097,-4.546983 -2.92563,-6.9327864 l -0.59056,-1.574364 -0.75529,-0.11145 -0.73584,-0.1195921 -1.57741,1.3099151 c -3.08015,2.5251974 -3.63481,2.9475164 -5.59676,4.2125124 -1.10176,0.698909 -2.87548,1.758369 -3.95274,2.351981 -1.07727,0.593612 -2.69034,1.49077 -3.61766,2.005758 -0.90787,0.506848 -3.82908,2.046763 -6.45604,3.415953 -2.6326,1.355712 -5.87881,3.047543 -7.228372,3.755165 -4.673563,2.432026 -5.492953,2.822623 -12.170983,5.872154 -10.42548,4.745311 -12.95136,5.755371 -27.02865,10.841667 -6.8705,2.480667 -13.58853,4.834134 -14.93425,5.223343 -1.34007,0.402684 -4.52339,1.371211 -7.069925,2.168158 -2.540883,0.810421 -5.148888,1.569745 -5.791313,1.727847 -0.648068,0.144623 -1.952372,0.46897 -2.917277,0.730413 -0.964896,0.261439 -3.534606,0.893846 -5.712208,1.42544 -2.197047,0.539735 -4.89161,1.256099 -6.012107,1.582688 -1.946126,0.593078 -4.757986,1.247672 -8.4048493,1.982597 -1.371418,0.273246 -1.694491,0.265954 -2.013137,0.05089 -0.5619926,-0.414145 -0.4327046,-0.705883 0.742525,-1.720679 1.180863,-1.001315 1.697229,-1.296719 10.0392363,-5.613206 2.685309,-1.393622 6.192517,-3.226413 7.783624,-4.066851 2.635125,-1.404291 3.271304,-1.686499 6.945287,-3.06639 2.231621,-0.839334 8.222574,-3.236863 13.315744,-5.321849 5.09317,-2.08499 11.22028,-4.539518 13.60749,-5.444 2.38157,-0.917956 6.06936,-2.319474 8.17864,-3.123428 5.20231,-1.988116 13.50712,-5.465336 16.47348,-6.897431 8.00189,-3.873116 8.19891,-4.003127 7.87413,-4.833398 -0.22573,-0.539102 -0.72888,-0.37595 -4.86783,1.531268 -7.2195,3.339603 -21.36159,9.308407 -27.20068,11.468109 -3.36279,1.249594 -8.23951,3.196429 -13.51024,5.403281 -4.53166,1.897404 -10.180702,4.183447 -12.534657,5.058169 -4.146403,1.561853 -4.327092,1.621666 -4.870959,1.469217 -0.582765,-0.136164 -0.582765,-0.136164 -2.484468,-4.678096 l -1.907347,-4.55541 0.341432,-0.713207 c 0.470721,-1.004945 1.179165,-1.8243 2.360631,-2.714985 1.009557,-0.755347 1.237303,-0.866544 15.410128,-6.816538 7.91019,-3.327828 16.14224,-6.869623 18.31179,-7.857212 2.1639,-1.001069 6.03621,-2.780802 8.62799,-3.96102 2.59179,-1.1802254 5.68048,-2.6477005 6.87193,-3.2415985 1.19144,-0.593901 3.81648,-1.803881 5.84736,-2.685891 2.12248,-0.9361985 3.7418,-1.7092523 3.84409,-1.8471231 0.23783,-0.3055006 0.0485,-0.8123145 -0.35298,-0.8976667 -0.3262,-0.069343 -7.66732,2.9251758 -7.83299,3.1846238 z M 9.8557327,58.687509 c 2.5300973,-0.235655 5.3369183,-0.793098 8.3313783,-1.66671 1.248477,-0.348493 5.049736,-1.369828 8.431265,-2.247102 6.846506,-1.773647 7.374762,-1.931467 14.903301,-4.259964 7.42001,-2.314743 7.34222,-2.28217 19.03732,-6.561131 7.86806,-2.882502 11.92538,-4.438737 15.85412,-6.083696 5.91256,-2.475587 17.60165,-7.860846 23.000471,-10.580698 1.960642,-0.995162 3.932572,-1.96337 4.360452,-2.142522 l 0.82251,-0.328546 -0.51707,0.675866 c -0.27925,0.370365 -1.36731,1.538748 -2.41143,2.593691 -1.03848,1.068421 -2.220662,2.339573 -2.607832,2.834327 -1.70934,2.141326 -5.620981,5.901725 -8.477111,8.14304 -0.8069,0.638813 -2.21178,1.92401 -3.14233,2.868038 -0.93054,0.944029 -2.11333,2.104552 -2.61216,2.551018 -1.44379,1.301484 -4.87654,4.021837 -6.51603,5.183499 -0.82946,0.5849 -2.59573,1.989724 -3.93723,3.153342 -1.49397,1.290815 -3.32986,2.693113 -4.75601,3.654567 -1.26803,0.84773 -3.23443,2.32051 -4.35443,3.24882 -1.12,0.928314 -2.32908,1.862241 -2.67604,2.070876 -0.34697,0.20863 -2.18346,1.500303 -4.06702,2.843358 -5.20395,3.731236 -8.96351,6.271617 -10.50443,7.122724 -0.75792,0.428223 -2.88112,1.744891 -4.71257,2.939408 -1.83146,1.194516 -4.235107,2.660291 -5.370714,3.278331 -1.116172,0.609903 -2.873554,1.599162 -3.88119,2.195301 -1.007636,0.59614 -3.192896,1.76455 -4.864926,2.575511 -1.666387,0.824437 -4.246289,2.142244 -5.715058,2.9473 -5.786599,3.103977 -7.999971,3.713908 -10.555546,2.851411 -0.878839,-0.297323 -1.160387,-0.86057 -1.703705,-3.468493 -0.228738,-1.092249 -0.6306,-2.270412 -1.038811,-3.081593 -0.3492923,-0.724966 -0.8921753,-2.240093 -1.1880543,-3.383431 -0.341598,-1.361799 -0.808049,-2.639642 -1.348583,-3.712224 -0.622043,-1.212696 -0.874096,-1.978378 -1.0187536,-2.979109 -0.12656,-0.739023 -0.60671,-2.486338 -1.104504,-3.893621 -0.808764,-2.259178 -0.903386,-2.758128 -0.943165,-4.436383 -0.02235,-1.0361 -1.67e-4,-2.075006 0.03753,-2.312551 0.06279,-0.232213 0.510835,-0.799977 1.00966,-1.246439 1.066693,-1.001033 1.3308206,-1.079943 4.2367006,-1.346215 z M 45.358547,214.45399 c 0.57077,0.48967 0.9935,0.89876 0.93516,0.92319 -0.36954,0.15473 -1.46171,0.0576 -2.07016,-0.19452 -0.77595,-0.32457 -1.30963,-1.16242 -1.44111,-2.29538 l -0.0444,-0.48829 0.79408,0.58626 c 0.4585,0.33075 1.2808,0.98439 1.82647,1.46874 z m 3.06082,2.61514 c 1.3322,1.21633 7.40529,4.69282 9.33045,5.35992 0.66116,0.21422 1.86931,0.64294 2.7036,0.94308 0.81484,0.30827 2.8981,0.86164 4.59056,1.24598 1.71192,0.37621 3.57188,0.83299 4.13266,1.02587 0.57461,0.17126 1.44719,0.34448 1.97101,0.39444 0.9918,0.0758 7.9624,1.65584 10.63155,2.40743 l 1.6065,0.45201 -1.20717,0.77472 c -0.66318,0.43609 -1.68714,1.10242 -2.28382,1.47897 -0.59103,0.39003 -2.31204,1.41158 -3.85296,2.26269 -1.51584,0.85644 -3.27322,1.8457 -3.8812,2.1953 -0.60232,0.36307 -2.83273,1.42367 -4.94957,2.37334 -2.98076,1.34312 -4.11386,1.91256 -5.00167,2.52189 -0.81002,0.57675 -2.04853,1.22204 -4.17918,2.19335 l -3.03348,1.38099 -1.20826,0.0624 c -0.68757,0.0503 -1.32807,0.0492 -1.45918,0.009 -0.13111,-0.0402 -0.54116,-1.1832 -0.95236,-2.54754 -0.38614,-1.35899 -1.45004,-4.44591 -2.32653,-6.86682 -1.45267,-3.90625 -1.6545,-4.66128 -1.98711,-6.92973 -0.21927,-1.39719 -0.77891,-3.93491 -1.28668,-5.63898 -0.84876,-2.95525 -0.87757,-3.13326 -0.55751,-3.67913 0.30061,-0.53771 2.05558,-1.96948 2.41192,-1.99196 0.0752,0.016 0.43029,0.26336 0.78843,0.57278 z m 40.38566,12.87028 c 1.89007,0.36497 4.19231,0.7316 5.10068,0.82648 5.856681,0.55746 6.194163,0.65376 12.342653,3.65518 3.44558,1.67787 5.00431,2.56174 6.21547,3.54361 1.723,1.38535 5.41079,5.60712 5.35234,6.12265 -0.0126,0.24288 -2.08621,1.45959 -5.62104,3.33563 -2.24361,1.19284 -4.94776,2.70523 -8.04282,4.5397 -1.01328,0.58266 -3.0624,1.69407 -4.567552,2.46683 -1.59675,0.82696 -3.714901,2.04648 -5.060731,2.92679 -2.57245,1.66317 -5.2766,3.17556 -8.0654,4.48579 -2.56105,1.19903 -4.69361,2.32954 -6.88392,3.59511 -1.08543,0.62871 -3.20167,1.68901 -5.10457,2.54912 -2.23355,0.9985 -3.91374,1.8446 -5.43209,2.74963 -4.06378,2.41431 -6.42398,3.16492 -8.03674,2.5888 -0.59153,-0.2117 -0.75397,-0.38129 -1.08691,-1.17646 -0.65459,-1.5634 -1.5491,-4.73709 -1.91376,-6.75453 -0.46553,-2.64049 -1.85711,-7.60193 -3.26585,-11.62162 -1.21939,-3.51287 -1.90077,-5.90459 -1.82911,-6.55235 0.0182,-0.22941 0.27552,-0.54306 0.63064,-0.78679 1.15134,-0.79886 4.13907,-2.39832 6.31426,-3.37242 1.26674,-0.57787 2.63572,-1.29367 3.18222,-1.68089 0.69645,-0.46584 2.1489,-1.2007 4.92137,-2.44073 2.16956,-0.98754 4.39996,-2.04818 4.94957,-2.37335 0.54961,-0.3252 2.307,-1.31443 3.87554,-2.20878 1.57418,-0.88087 3.93076,-2.29526 5.21008,-3.11603 1.29313,-0.8424 2.56993,-1.6146 2.85603,-1.75022 0.40843,-0.17101 1.24715,-0.0787 3.95964,0.44885 z m 29.794423,15.30895 c 0.0477,0.0592 0.25525,0.33665 0.51303,0.62472 0.23831,0.29623 1.1131,1.89416 1.93265,3.57856 0.79451,1.67906 1.88872,3.692 2.41363,4.45432 0.78893,1.1745 3.10218,5.60747 3.79064,7.25173 0.10722,0.25608 0.77563,1.79785 1.503,3.42581 1.37069,3.1644 1.59687,4.30524 1.33855,6.47264 -0.0742,0.69635 -0.96636,4.07955 -1.18354,4.59817 -0.0276,0.0432 -0.4705,0.0228 -0.99432,-0.0272 -1.38763,-0.14766 -3.11034,0.0509 -4.83688,0.56789 -1.30119,0.3864 -1.72342,0.57904 -2.88915,1.28894 -2.56176,1.57949 -3.76531,3.01799 -3.96457,4.78049 -0.13323,1.10125 0.0857,0.91452 -2.82166,2.43281 -0.88025,0.46364 -2.2681,1.29815 -3.10886,1.8561 -1.80072,1.21332 -4.17171,2.5387 -7.41288,4.13339 -1.30813,0.64278 -3.148972,1.65111 -4.098262,2.22281 -1.3822,0.84802 -2.734881,1.49358 -6.849341,3.29551 -2.81703,1.2428 -5.21431,2.34163 -5.32224,2.46602 -0.11359,0.11088 -3.05545,1.43772 -6.54502,2.93048 -6.34297,2.70328 -6.34297,2.70328 -8.3957,3.15094 -2.0082,0.44483 -2.07784,0.44231 -2.69254,0.0661 -1.05881,-0.61797 -1.57665,-2.12775 -2.94715,-8.84045 -0.25695,-1.15963 -0.92201,-3.62154 -1.51129,-5.46573 -0.78176,-2.41305 -1.20921,-4.19827 -1.55815,-6.39652 -0.26812,-1.67769 -0.72368,-4.0214 -1.01136,-5.19985 -0.29334,-1.19192 -0.46624,-2.26003 -0.40286,-2.38161 0.0634,-0.12161 0.5842,-0.62477 1.16082,-1.10381 0.91482,-0.7632 1.39229,-1.04231 3.82284,-2.17086 1.5277,-0.7189 3.1163,-1.51072 3.51033,-1.77074 0.39401,-0.26005 2.54101,-1.30152 4.74945,-2.3054 2.61122,-1.18839 4.65532,-2.20262 5.80726,-2.89086 0.96873,-0.57985 3.29014,-1.80527 5.14538,-2.72462 4.89376,-2.39749 6.23202,-3.13207 9.31518,-5.10412 1.770591,-1.12151 4.019251,-2.41151 6.143653,-3.50691 1.86339,-0.95445 4.20114,-2.25007 5.23074,-2.90293 1.0158,-0.63124 3.27826,-1.94285 5.00803,-2.88887 1.74358,-0.96764 3.90628,-2.18996 4.80286,-2.72377 1.96256,-1.15436 2.307,-1.31442 2.35779,-1.19312 z m 5.66219,31.81256 c 1.19325,-0.26201 2.84694,-0.35247 2.70322,-0.14973 -0.022,0.0567 -0.68827,0.43074 -1.45748,0.83201 -0.76922,0.40121 -2.05981,1.19508 -2.88111,1.74489 -1.48702,1.03445 -4.71005,2.89082 -4.91078,2.84815 -0.0502,-0.0106 -0.0131,-0.35884 0.10431,-0.78817 0.53865,-1.8254 3.34893,-3.79407 6.44184,-4.48715 z m 3.78438,1.50434 c -0.15317,0.50767 -0.65968,1.59095 -1.12032,2.40159 -0.75309,1.31326 -1.04363,1.65667 -2.57085,2.97725 -0.94244,0.80644 -1.888,1.55084 -2.08249,1.63227 -0.52513,0.21987 -2.16056,0.0809 -2.85307,-0.26272 -0.6003,-0.28724 -1.69537,-1.42859 -1.57111,-1.62318 0.0415,-0.0649 0.94364,-0.58519 1.98765,-1.14904 1.05782,-0.58547 2.62888,-1.5284 3.48908,-2.09449 1.4456,-0.96959 3.15844,-1.95604 4.4446,-2.54208 l 0.55839,-0.24963 z m 6.30221,0.0383 c 1.88312,0.62132 5.15185,2.0406 7.62893,3.31613 1.42702,0.73309 4.74512,3.03459 6.98556,4.83688 0.94271,0.77747 2.49761,1.97975 3.41211,2.68983 0.9145,0.71007 2.2737,1.77253 2.98998,2.39136 0.73573,0.61069 2.04162,1.60042 2.89717,2.2243 0.86935,0.60225 1.60761,1.16437 1.63582,1.23176 0.0282,0.0674 -0.78744,0.63066 -1.80889,1.24842 -1.03524,0.63938 -2.87486,1.869 -4.10087,2.7625 -1.22601,0.8935 -3.66796,2.48618 -5.40841,3.51587 -1.75426,1.05132 -4.14663,2.54405 -5.30361,3.32944 -3.40443,2.29665 -4.8726,3.21234 -8.23177,5.12571 -1.75739,0.98926 -4.08637,2.36041 -5.19941,3.03236 -1.12685,0.69357 -3.1145,1.84261 -4.44713,2.59066 -1.31882,0.72644 -3.37046,1.88642 -4.53369,2.5477 -1.16322,0.66129 -3.22364,1.74574 -4.59576,2.39946 -1.34702,0.65907 -3.51598,1.75726 -4.7959,2.46741 -1.28557,0.69666 -3.26566,1.69997 -4.42949,2.25063 -2.90549,1.35909 -4.47151,2.20486 -7.629952,4.1609 -1.73734,1.09176 -3.636511,2.12454 -5.289101,2.92736 -2.79695,1.34533 -4.06307,2.03385 -5.58082,3.0495 -0.53833,0.35212 -2.22668,1.23328 -3.75441,1.95213 -1.5277,0.7189 -3.1803,1.52168 -3.70795,1.79012 -0.80244,0.43106 -1.05279,0.48829 -1.74911,0.46307 -0.72707,-0.0441 -0.84437,-0.10583 -1.045,-0.63959 -0.26522,-0.63345 -1.32277,-4.08736 -2.24489,-7.21782 -0.28961,-1.01924 -1.11338,-3.47805 -1.84002,-5.48649 -0.70718,-2.01658 -1.38424,-4.12498 -1.50143,-4.67785 -0.65728,-3.58983 -2.47117,-10.92473 -3.15266,-12.82535 -0.96425,-2.68512 -0.93159,-2.82551 0.66264,-3.6039 0.68325,-0.33356 1.48942,-0.59196 2.29057,-0.75314 1.7359,-0.33082 11.87458,-4.56003 14.96772,-6.23532 1.3439,-0.72111 3.29388,-1.63259 5.65287,-2.60446 3.13696,-1.29761 3.911821,-1.68536 5.985431,-2.9021 1.321332,-0.77501 3.403722,-1.91619 4.653502,-2.53451 3.29952,-1.61912 5.61781,-2.90658 7.32693,-4.06572 1.24294,-0.85306 4.13029,-2.47384 5.14166,-2.8973 0.11669,-0.0489 0.28982,0.0371 0.36317,0.21226 0.25394,0.60649 1.39235,1.52379 2.31885,1.88036 1.0576,0.39671 2.66793,0.53032 3.55504,0.30145 0.75912,-0.20696 3.68741,-2.49433 4.93861,-3.87359 0.65322,-0.73286 2.06469,-3.36724 2.41498,-4.49601 l 0.27876,-0.97208 1.1235,0.22655 c 0.61603,0.10641 2.01616,0.50227 3.12646,0.86108 z m 28.28873,18.53718 c 5.3308,4.21499 9.41848,7.20805 11.69854,8.61359 2.15146,1.31682 6.38093,4.26635 8.08135,5.59779 l 0.27974,0.23135 -11.25607,4.61783 c -7.85494,3.24138 -12.31699,5.14129 -14.78079,6.29958 -4.72747,2.24867 -8.91591,3.76474 -24.2077,8.78933 -2.374,0.77222 -7.33284,2.46832 -11.00742,3.73758 -11.3544,3.94623 -14.19327,4.75469 -24.924373,7.07767 -8.83958,1.92702 -10.77936,2.15311 -13.42785,1.61464 -1.51933,-0.29842 -1.63099,-0.34672 -1.66978,-0.82153 -0.0294,-0.28864 0.0767,-0.74492 0.25618,-1.02599 0.29809,-0.48914 0.5202,-0.61382 3.16468,-1.83194 1.97504,-0.9062 3.41057,-1.68145 4.72879,-2.51851 1.19336,-0.7531 2.94822,-1.69379 4.6648,-2.50756 1.52207,-0.73236 3.510331,-1.77074 4.406921,-2.30454 0.91038,-0.55542 2.606302,-1.58231 3.791502,-2.30031 1.26299,-0.75058 3.17345,-1.75641 4.68737,-2.45365 1.37774,-0.64028 3.52726,-1.7303 4.75448,-2.40254 1.22157,-0.68572 3.40432,-1.80555 4.83479,-2.4837 1.43046,-0.67818 3.452,-1.74631 4.49852,-2.35873 1.04654,-0.61243 2.82901,-1.59635 3.94518,-2.20625 1.14126,-0.60457 3.23996,-1.81594 4.69996,-2.69653 1.46566,-0.86711 4.01109,-2.37641 5.69068,-3.3331 3.50349,-2.00547 5.9153,-3.50635 8.53167,-5.28295 0.99324,-0.68515 3.41884,-2.20764 5.37576,-3.37549 1.95128,-1.18133 4.30726,-2.70634 5.23086,-3.39401 1.53095,-1.1479 5.57408,-3.77534 6.36021,-4.13617 0.22775,-0.11118 0.67184,0.13055 1.59199,0.85411 z m -39.4619,39.6178 c 3.84711,-1.29398 8.28082,-2.7702 9.84048,-3.24899 1.57347,-0.50041 3.52211,-1.14205 4.3421,-1.42203 0.81997,-0.28001 3.4023,-1.15525 5.71232,-1.91653 7.31087,-2.41161 10.88197,-3.76426 15.36536,-5.83154 2.70284,-1.24255 6.10081,-2.68113 10.2968,-4.34292 3.47074,-1.37395 8.57267,-3.38344 11.37647,-4.49404 l 5.0574,-2.00664 1.46269,1.14584 c 1.93814,1.51703 5.3698,3.70762 7.41093,4.70631 0.91582,0.44024 1.61144,0.84595 1.58383,0.8892 -0.14623,0.25131 -8.03132,3.58447 -10.60235,4.48669 -1.5898,0.57057 -8.72009,3.41349 -15.86108,6.34005 -14.67659,6.00251 -19.24271,7.70843 -33.89711,12.67203 -1.63998,0.55994 -6.55367,2.36385 -10.89458,4.00714 -4.34653,1.62981 -8.41515,3.1591 -9.04065,3.35763 -1.3037,0.43497 -1.36517,0.39735 -1.93198,-0.90183 -0.20569,-0.43661 -0.61642,-1.19922 -0.90865,-1.67879 -1.19402,-1.92363 -0.8207,-4.96286 0.94517,-7.4605 0.91745,-1.30288 0.96452,-1.35426 1.85414,-1.63171 0.50314,-0.16318 4.04724,-1.36193 7.88871,-2.66938 z"
     style="stroke:#000000;stroke-opacity:1;stroke-width:3.69974999;stroke-miterlimit:4;stroke-dasharray:none" />
</svg>
